# AST/ASF file generated using VICON BodyLanguage
# -----------------------------------------------
:version 1.10
:name VICON
:units
  mass 1.0
  length 0.45
  angle deg
:documentation
   .ast/.asf automatically generated from VICON data using
   VICON BodyBuilder and BodyLanguage model FoxedUp or BRILLIANT.MOD
:root
   order TX TY TZ RX RY RZ
   axis XYZ
   position 0 0 0  
   orientation 0 0 0 
:bonedata
  begin
     id 1 
     name lhipjoint
     direction 0.630305 -0.712092 0.309259 
     length 2.29033 
     axis 0 0 0  XYZ
  end
  begin
     id 2 
     name lfemur
     direction 0.34202 -0.939693 0  
     length 6.43538  
     axis 0 0 20  XYZ
    dof rx ry rz
    limits (-160.0 20.0)
           (-70.0 70.0)
           (-60.0 70.0)
  end
  begin
     id 3 
     name ltibia
     direction 0.34202 -0.939693 0   
     length 7.43097   
     axis 0 0 20   XYZ
    dof rx
    limits (-10.0 170.0)
  end
  begin
     id 4 
     name lfoot
     direction 0.0334653 -0.0919451 0.995202   
     length 1.78438   
     axis -90 7.62852e-016 20   XYZ
    dof rx rz
    limits (-45.0 90.0)
           (-70.0 20.0)
  end
  begin
     id 5 
     name ltoes
     direction 1.53535e-011 -4.21933e-011 1   
     length 0.90832   
     axis -90 7.62852e-016 20   XYZ
    dof rx
    limits (-90.0 20.0)
  end
  begin
     id 6 
     name rhipjoint
     direction -0.682059 -0.67077 0.291312   
     length 2.43143  
     axis 0 0 0  XYZ 
  end
  begin
     id 7 
     name rfemur
     direction -0.34202 -0.939693 0   
     length 6.63488   
     axis 0 0 -20   XYZ
    dof rx ry rz
    limits (-160.0 20.0)
           (-70.0 70.0)
           (-70.0 60.0)
  end
  begin
     id 8 
     name rtibia
     direction -0.34202 -0.939693 0   
     length 6.86532   
     axis 0 0 -20   XYZ
    dof rx
    limits (-10.0 170.0)
 end
 begin
     id 9 
     name rfoot
     direction -0.105199 -0.289033 0.951521   
     length 1.77126  
     axis -90 -7.62852e-016 -20   XYZ
    dof rx rz
    limits (-45.0 90.0)
           (-20.0 70.0)
  end
  begin
     id 10 
     name rtoes
     direction -1.53551e-011 -4.21978e-011 1   
     length 0.889273   
     axis -90 -7.62852e-016 -20   XYZ
    dof rx
    limits (-90.0 20.0)
  end
  begin
     id 11 
     name lowerback
     direction -0.0514305 0.998089 0.034245   
     length 2.02077   
     axis 0 0 0   XYZ
    dof rx ry rz
    limits (-20.0 45.0)
           (-30.0 30.0)
           (-30.0 30.0)
  end
  begin
     id 12 
     name upperback
     direction 0.0203189 0.999449 -0.0262315   
     length 2.01413   
     axis 0 0 0   XYZ
    dof rx ry rz
    limits (-20.0 45.0)
           (-30.0 30.0)
           (-30.0 30.0)
  end
  begin
     id 13 
     name thorax
     direction 0.0452736 0.998142 -0.0407729   
     length 2.02986   
     axis 0 0 0   XYZ
    dof rx ry rz
    limits (-20.0 45.0)
           (-30.0 30.0)
           (-30.0 30.0)
  end
  begin
     id 14 
     name lowerneck
     direction -0.0180464 0.999645 -0.0195774   
     length 1.59034   
     axis 0 0 0   XYZ
    dof rx ry rz
    limits (-20.0 45.0)
           (-30.0 30.0)
           (-30.0 30.0)
  end
  begin
     id 15 
     name upperneck
     direction 0.0732272 0.979935 -0.18538   
     length 1.57486   
     axis 0 0 0   XYZ
    dof rx ry rz
    limits (-20.0 45.0)
           (-30.0 30.0)
           (-30.0 30.0)
  end
  begin
     id 16
     name head
     direction 0.0252963 0.997909 -0.059472  
     length 1.60334  
     axis 0 0 0   XYZ
    dof rx ry rz
    limits (-20.0 45.0)
           (-30.0 30.0)
           (-30.0 30.0)
  end
  begin
     id 17 
     name lclavicle
     direction 0.943819 0.330449 0.00315172  
     length 3.50322  
     axis 0 0 0   XYZ
    dof ry rz
    limits (-20.0 10.0)
           (0.0 20.0)
  end
  begin
     id 18 
     name lhumerus
     direction 1 -4.48949e-011 2.22502e-028   
     length 4.63208   
     axis 180 -30 -90   XYZ
    dof rx ry rz
    limits (-60.0 90.0)
           (-90.0 90.0)
           (-90.0 90.0)
  end
  begin
     id 19
     name lradius
     direction 1 -4.48967e-011 -4.10197e-027   
     length 3.41924   
     axis 180 -30 -90   XYZ
    dof rx
    limits (-10.0 170.0)
  end
  begin
     id 20
     name lwrist
     direction 1 -4.48987e-011 -1.24264e-027   
     length 1.70962   
     axis 2.50585e-015 90 90   XYZ
    dof ry
    limits (-180.0 0.0)
 end
  begin
     id 21 
     name lhand
     direction 1 -4.48983e-011 -2.48528e-027   
     length 0.62537   
     axis 1.58582e-015 90 90   XYZ
    dof rx rz
    limits (-90.0 90.0)
           (-45.0 45.0)
  end
  begin
     id 22 
     name lfingers
     direction 1 -4.48896e-011 -4.97056e-027   
     length 0.50419   
     axis 3.17164e-015 90 90   XYZ
    dof rx
    limits (0.0 90.0)
  end
  begin
     id 23
     name lthumb
     direction 0.707107 -6.34803e-011 0.707107   
     length 0.723919   
     axis -90 45 2.85299e-015   XYZ
    dof rx rz
    limits (-45.0 45.0)
           (-45.0 45.0)
  end
  begin
     id 24 
     name rclavicle
     direction -0.964499 0.260664 -0.0423695   
     length 3.91997  
     axis 0 0 0   XYZ 
    dof ry rz
    limits (-10.0 20.0)
           (-20.0 0.0)
  end
  begin
     id 25 
     name rhumerus
     direction -1 -4.48957e-011 -1.98656e-027  
     length 4.4064   
     axis 180 30 90   XYZ
    dof rx ry rz
    limits (-90.0 60.0)
           (-90.0 90.0)
           (-90.0 90.0)
  end
  begin
     id 26 
     name rradius
     direction -1 -4.48968e-011 1.96972e-027   
     length 3.44675   
     axis 180 30 90   XYZ
    dof rx
    limits (-10.0 170.0)
  end
  begin
     id 27 
     name rwrist
     direction -1 -4.48974e-011 -1.24264e-027   
     length 1.72338   
     axis 2.50585e-015 -90 -90   XYZ
    dof ry
    limits (-180.0 0.0)
  end
  begin
     id 28
     name rhand
     direction -1 -4.48901e-011 -2.48528e-027   
     length 0.513674   
     axis 1.58582e-015 -90 -90   XYZ
    dof rx rz
    limits (-90.0 90.0)
           (-45.0 45.0)
  end
  begin
     id 29
     name rfingers
     direction -1 -4.48946e-011 -4.97056e-027   
     length 0.414137   
     axis 3.17164e-015 -90 -90   XYZ
    dof rx
    limits (0.0 90.0)
  end
  begin
     id 30
     name rthumb
     direction -0.707107 -6.34859e-011 0.707107   
     length 0.59462   
     axis -90 -45 -2.85299e-015   XYZ
    dof rx rz
    limits (-45.0 45.0)
           (-45.0 45.0)
  end
:hierarchy
  begin
    root lhipjoint rhipjoint lowerback
    lhipjoint lfemur
    lfemur ltibia
    ltibia lfoot
    lfoot ltoes
    rhipjoint rfemur
    rfemur rtibia
    rtibia rfoot
    rfoot rtoes
    lowerback upperback
    upperback thorax
    thorax lowerneck lclavicle rclavicle
    lowerneck upperneck
    upperneck head
    lclavicle lhumerus
    lhumerus lradius
    lradius lwrist
    lwrist lhand lthumb
    lhand lfingers
    rclavicle rhumerus
    rhumerus rradius
    rradius rwrist
    rwrist rhand rthumb
    rhand rfingers
  end

#!OML:ASF E:\inclinewalkrobotboard\Project 1\Capture day 1\Session 1\subject1.ASF
:FULLY-SPECIFIED
:DEGREES
126
root 11.3118 16.0038 5.95687 -22.3677 -79.971 32.6387
lowerback -0.0383667 -0.1074 -6.72132
upperback -0.328308 -0.189829 -1.74783
thorax -0.30303 -0.0931113 1.96644
lowerneck -7.69782 5.41895 -2.81031
upperneck 9.6404 7.6674 -0.769835
head 4.49171 3.60854 0.712096
rclavicle 1.80646e-014 -2.62396e-014
rhumerus -48.3399 -16.7479 -73.4946
rradius 104.522
rwrist -12.2525
rhand -19.6762 -29.8501
rfingers 7.12502
rthumb 6.65241 -59.7256
lclavicle 1.80646e-014 -2.62396e-014
lhumerus -35.3268 -23.7985 105.736
lradius 99.3192
lwrist -5.07148
lhand -55.3639 -37.2648
lfingers 7.12502
lthumb -27.7281 -9.28941
rfemur -1.96919 9.53438 -0.636994
rtibia 11.0176
rfoot -21.956 -18.3455
rtoes -42.5922
lfemur -27.1652 -0.324219 5.01849
ltibia 22.0213
lfoot -6.33395 18.1526
ltoes -63.0772
127
root 11.2568 15.9238 6.20993 -18.6321 -79.524 29.2057
lowerback -0.117123 -0.15905 -6.61451
upperback -0.35392 -0.252564 -1.75721
thorax -0.280332 -0.124664 1.89721
lowerneck -7.09285 5.8906 -2.45189
upperneck 8.71883 8.23577 -0.92811
head 4.05382 3.9211 0.584161
rclavicle -2.70844e-015 -4.45278e-014
rhumerus -48.6459 -17.7361 -72.0857
rradius 104.267
rwrist -13.2854
rhand -19.3922 -29.5419
rfingers 7.12502
rthumb 6.9266 -59.4086
lclavicle -2.70844e-015 -4.45278e-014
lhumerus -35.0946 -25.3508 106.436
lradius 99.2058
lwrist -5.16639
lhand -55.5984 -37.3985
lfingers 7.12502
lthumb -27.9524 -9.45941
rfemur -1.25322 9.88217 -1.02675
rtibia 10.4965
rfoot -22.466 -19.1469
rtoes -42.2858
lfemur -28.6072 1.45724 4.6118
ltibia 23.2445
lfoot -2.96058 17.4593
ltoes -65.2797
128
root 11.1993 15.8344 6.48449 -15.4518 -79.0274 26.344
lowerback -0.238207 -0.196637 -6.47705
upperback -0.370082 -0.29262 -1.77236
thorax -0.226307 -0.146033 1.80467
lowerneck -6.81546 6.12375 -2.29296
upperneck 7.96646 8.49341 -0.750919
head 3.72752 4.08289 0.597692
rclavicle -4.02539e-015 6.95746e-015
rhumerus -49.0876 -18.8624 -70.4503
rradius 103.951
rwrist -14.206
rhand -19.0744 -29.0449
rfingers 7.12502
rthumb 7.2333 -58.9013
lclavicle -4.02539e-015 6.95746e-015
lhumerus -34.7545 -26.8527 107.284
lradius 98.9937
lwrist -5.27919
lhand -55.2299 -37.1436
lfingers 7.12502
lthumb -27.6 -9.14764
rfemur -0.491651 10.3057 -1.53832
rtibia 9.95733
rfoot -22.9278 -19.9543
rtoes -42.3228
lfemur -30.1523 3.21936 3.78789
ltibia 24.7744
lfoot 2.26083 16.548
ltoes -66.8053
129
root 11.1408 15.739 6.78109 -13.0441 -78.5709 24.1958
lowerback -0.299516 -0.135182 -6.32378
upperback -0.339987 -0.204459 -1.83613
thorax -0.168413 -0.104694 1.65367
lowerneck -6.67391 6.2601 -1.98406
upperneck 7.27045 8.61707 -0.586553
head 3.46074 4.17769 0.580759
rclavicle 5.2181e-015 -2.3059e-014
rhumerus -49.6795 -20.1305 -68.5184
rradius 103.703
rwrist -15.4114
rhand -18.8358 -28.707
rfingers 7.12502
rthumb 7.46363 -58.5553
lclavicle 5.2181e-015 -2.3059e-014
lhumerus -34.2489 -28.6875 108.131
lradius 98.7423
lwrist -5.23193
lhand -54.923 -37.2453
lfingers 7.12502
lthumb -27.3065 -9.20275
rfemur 0.298476 10.6763 -2.21364
rtibia 9.44299
rfoot -23.1724 -20.7896
rtoes -43.0897
lfemur -31.5639 4.46029 2.70618
ltibia 26.3821
lfoot 7.28729 15.9119
ltoes -68.4286
130
root 11.0846 15.6333 7.08797 -10.9533 -78.1194 22.2987
lowerback -0.23936 -0.0255128 -6.3019
upperback -0.257249 -0.0592616 -1.87646
thorax -0.127865 -0.0349621 1.60031
lowerneck -6.78943 6.37798 -1.40512
upperneck 6.68423 8.70943 -0.524312
head 3.30288 4.25341 0.498326
rclavicle 3.07619e-014 2.38542e-015
rhumerus -50.2781 -21.4643 -66.3266
rradius 103.44
rwrist -16.9547
rhand -18.2565 -28.5614
rfingers 7.12502
rthumb 8.02281 -58.3891
lclavicle 3.07619e-014 2.38542e-015
lhumerus -33.6109 -30.8655 108.897
lradius 98.4589
lwrist -5.23707
lhand -55.0764 -37.5571
lfingers 7.12502
lthumb -27.4532 -9.53777
rfemur 1.14033 11.1616 -2.8857
rtibia 9.01338
rfoot -23.5391 -21.6974
rtoes -43.4634
lfemur -33.2065 6.31019 0.882599
ltibia 29.5592
lfoot 0.256693 13.6124
ltoes -68.3178
131
root 11.0341 15.5142 7.39943 -9.39901 -77.6495 20.8099
lowerback 0.076196 -0.00197353 -6.46983
upperback -0.165117 -0.0483134 -1.79053
thorax -0.210749 -0.0280677 1.78232
lowerneck -6.10423 7.30308 -1.45769
upperneck 5.52548 9.91755 -0.484224
head 2.76357 4.87614 0.508078
rclavicle -1.10822e-014 3.57812e-015
rhumerus -50.8271 -22.3729 -63.9064
rradius 103.026
rwrist -18.436
rhand -17.7229 -27.8222
rfingers 7.12502
rthumb 8.5378 -57.6296
lclavicle -1.10822e-014 3.57812e-015
lhumerus -32.9563 -32.8314 109.725
lradius 98.1611
lwrist -5.48248
lhand -55.3796 -37.4754
lfingers 7.12502
lthumb -27.7431 -9.50238
rfemur 2.0134 11.7112 -3.56628
rtibia 8.8318
rfoot -23.904 -22.7927
rtoes -44.1475
lfemur -34.5097 6.89432 -0.425875
ltibia 32.3464
lfoot -2.85086 9.74903
ltoes -68.0346
132
root 10.9937 15.3887 7.71252 -8.30539 -77.2548 19.7327
lowerback 0.581539 0.160891 -6.6456
upperback -0.0536434 0.130182 -1.76657
thorax -0.394183 0.0643224 1.90341
lowerneck -6.07162 7.62586 -1.34308
upperneck 4.68067 10.3046 -0.103683
head 2.45457 5.09769 0.594411
rclavicle 1.42131e-014 -6.36111e-015
rhumerus -51.7131 -23.5052 -61.1144
rradius 102.485
rwrist -19.6468
rhand -17.2484 -26.7691
rfingers 7.12502
rthumb 8.99561 -56.5574
lclavicle 1.42131e-014 -6.36111e-015
lhumerus -32.3422 -35.1902 110.754
lradius 97.7619
lwrist -5.76722
lhand -55.5617 -37.2741
lfingers 7.12502
lthumb -27.9173 -9.32929
rfemur 2.61323 11.9209 -4.37725
rtibia 9.10496
rfoot -24.0654 -23.7143
rtoes -45.0791
lfemur -35.6062 7.5407 -1.92219
ltibia 34.8014
lfoot -6.3605 8.41801
ltoes -67.6699
133
root 10.9634 15.2645 8.01667 -7.58936 -76.9548 19.0915
lowerback 1.17169 0.631697 -6.9321
upperback 0.0679844 0.702987 -1.92609
thorax -0.648892 0.353702 1.88679
lowerneck -5.79709 7.80309 -0.988844
upperneck 3.49225 10.4786 0.261693
head 2.00744 5.21562 0.604003
rclavicle -6.95746e-015 3.10104e-014
rhumerus -53.2877 -25.4402 -57.9293
rradius 101.887
rwrist -20.3901
rhand -17.4201 -26.5998
rfingers 7.12502
rthumb 8.82997 -56.3951
lclavicle -6.95746e-015 3.10104e-014
lhumerus -31.8888 -38.3714 112.061
lradius 97.1821
lwrist -6.01057
lhand -55.6188 -36.9063
lfingers 7.12502
lthumb -27.9719 -8.9704
rfemur 2.84836 11.9342 -5.34376
rtibia 9.73467
rfoot -24.4018 -24.0431
rtoes -44.7793
lfemur -36.5775 8.35935 -3.53975
ltibia 36.7945
lfoot -10.2354 7.30919
ltoes -67.206
134
root 10.9445 15.1523 8.3011 -7.59944 -76.6814 19.2666
lowerback 1.80159 1.04319 -7.55586
upperback 0.207127 1.17886 -2.12707
thorax -0.907823 0.594188 2.0062
lowerneck -5.54791 8.00057 -0.458478
upperneck 2.26424 10.6879 0.397138
head 1.58254 5.33808 0.515797
rclavicle -3.01159e-014 5.1684e-014
rhumerus -54.7999 -27.2685 -54.9907
rradius 101.071
rwrist -20.8888
rhand -18.0615 -26.5119
rfingers 7.12502
rthumb 8.211 -56.3323
lclavicle -3.01159e-014 5.1684e-014
lhumerus -31.2858 -41.3929 112.99
lradius 96.6173
lwrist -6.35566
lhand -55.5524 -36.7483
lfingers 7.12502
lthumb -27.9084 -8.80209
rfemur 2.77907 12.0685 -6.45367
rtibia 10.5834
rfoot -24.8057 -24.2185
rtoes -43.7166
lfemur -37.7396 9.15775 -5.2823
ltibia 38.8908
lfoot -12.8916 5.89232
ltoes -66.8958
135
root 10.9415 15.0654 8.56104 -7.33385 -76.2647 19.3439
lowerback 2.39593 1.2371 -8.27281
upperback 0.358801 1.35869 -2.25493
thorax -1.1151 0.686065 2.25547
lowerneck -5.23721 8.37423 -0.175379
upperneck 0.929587 11.1639 0.327686
head 1.11804 5.58088 0.404254
rclavicle 2.48481e-014 1.86858e-014
rhumerus -55.7561 -28.8101 -52.5705
rradius 99.8974
rwrist -21.5732
rhand -17.5001 -25.9859
rfingers 7.12502
rthumb 8.75274 -55.7844
lclavicle 2.48481e-014 1.86858e-014
lhumerus -30.3231 -44.1793 113.253
lradius 96.1513
lwrist -6.74602
lhand -55.547 -37.0905
lfingers 7.12502
lthumb -27.9032 -9.14338
rfemur 2.40139 12.266 -7.4241
rtibia 11.6797
rfoot -25.2974 -24.588
rtoes -41.8556
lfemur -39.572 8.97498 -6.49815
ltibia 41.3736
lfoot -11.666 2.74139
ltoes -67.3913
136
root 10.9485 15.0111 8.79908 -5.64893 -75.5816 18.2086
lowerback 2.86186 1.33584 -8.67412
upperback 0.496957 1.43017 -2.32303
thorax -1.24901 0.72218 2.39595
lowerneck -4.59648 8.81208 -0.192374
upperneck -0.709682 11.7475 0.239273
head 0.497696 5.87399 0.304781
rclavicle 1.05356e-014 -3.57812e-014
rhumerus -56.549 -30.4872 -50.4099
rradius 98.3899
rwrist -22.5784
rhand -16.5793 -25.4662
rfingers 7.12502
rthumb 9.64127 -55.2255
lclavicle 1.05356e-014 -3.57812e-014
lhumerus -29.3187 -47.0628 113.271
lradius 95.6624
lwrist -7.13406
lhand -55.908 -37.6527
lfingers 7.12502
lthumb -28.2483 -9.76212
rfemur 1.85107 12.3133 -7.95681
rtibia 12.8392
rfoot -25.7835 -25.0044
rtoes -38.7537
lfemur -42.3046 8.5602 -7.63838
ltibia 44.6156
lfoot -14.055 4.61748
ltoes -66.9719
137
root 10.9518 14.9865 9.02341 -3.19717 -74.8453 16.3749
lowerback 3.14369 1.39965 -8.78711
upperback 0.647017 1.48672 -2.35151
thorax -1.25951 0.746103 2.42214
lowerneck -3.89358 9.16702 -0.311649
upperneck -2.30324 12.2271 0.25048
head -0.113945 6.11386 0.241458
rclavicle 1.63997e-014 1.55052e-014
rhumerus -57.3545 -32.074 -48.4379
rradius 96.6643
rwrist -24.0514
rhand -16.4376 -25.0232
rfingers 7.12502
rthumb 9.77799 -54.7762
lclavicle 1.63997e-014 1.55052e-014
lhumerus -28.3703 -49.6111 113.204
lradius 95.0519
lwrist -7.75715
lhand -56.2932 -38.3256
lfingers 7.12502
lthumb -28.6164 -10.4966
rfemur 1.29059 12.0881 -8.15814
rtibia 13.7957
rfoot -25.555 -25.4647
rtoes -36.1549
lfemur -44.6988 8.00671 -8.54261
ltibia 47.0685
lfoot -14.5571 3.76401
ltoes -66.9667
138
root 10.9639 14.9984 9.22782 3.25576 -74.4064 10.8235
lowerback 3.09055 1.50645 -7.87183
upperback 0.646407 1.68042 -2.05902
thorax -1.23323 0.844147 2.20977
lowerneck -3.24464 9.35791 -0.575593
upperneck -3.78471 12.4963 0.363995
head -0.693387 6.24732 0.233675
rclavicle -3.35946e-014 2.38542e-015
rhumerus -58.1112 -33.5877 -46.5821
rradius 94.8269
rwrist -25.577
rhand -16.2623 -24.7375
rfingers 7.12502
rthumb 9.94712 -54.4825
lclavicle -3.35946e-014 2.38542e-015
lhumerus -27.3813 -51.8056 113.069
lradius 94.3808
lwrist -8.54658
lhand -56.2694 -38.5842
lfingers 7.12502
lthumb -28.5937 -10.7513
rfemur 0.00507407 12.1112 -7.01932
rtibia 14.7536
rfoot -24.8296 -26.3114
rtoes -34.4979
lfemur -46.7 7.78697 -7.99561
ltibia 48.2218
lfoot -15.0864 3.61065
ltoes -66.8706
139
root 10.9769 15.0289 9.41617 6.78527 -74.0025 8.14715
lowerback 3.15952 1.65978 -7.68719
upperback 0.698848 1.89022 -1.9664
thorax -1.23495 0.948075 2.19178
lowerneck -2.48168 9.5555 -0.783942
upperneck -5.29745 12.7712 0.343711
head -1.30451 6.38177 0.16904
rclavicle 2.46493e-014 -1.23246e-014
rhumerus -58.5468 -34.6459 -45.0806
rradius 92.7039
rwrist -27.2816
rhand -15.8844 -24.3132
rfingers 7.12502
rthumb 10.3117 -54.0404
lclavicle 2.46493e-014 -1.23246e-014
lhumerus -26.3401 -53.7792 112.715
lradius 93.7725
lwrist -8.99203
lhand -56.0345 -38.3116
lfingers 7.12502
lthumb -28.3692 -10.4412
rfemur -1.04104 11.9337 -6.7613
rtibia 15.2862
rfoot -23.7733 -26.5711
rtoes -31.7322
lfemur -47.7022 7.34933 -8.10089
ltibia 48.1969
lfoot -15.6007 3.74835
ltoes -66.8117
